<?xml version="1.0" encoding="UTF-8"?>
<svg xmlns="http://www.w3.org/2000/svg" width="169" height="32" viewBox="0 0 169 32" fill="none">
  <path d="M45.1461 9.46663L43.3009 11.7136C42.3387 10.6113 40.9535 9.88695 39.6502 9.88695C37.242 9.88695 35.3783 11.7533 35.3783 14.1985C35.3783 16.6438 37.2446 18.5312 39.6502 18.5312C40.9138 18.5312 42.299 17.8889 43.3009 16.887L45.1672 18.9119C43.6816 20.4372 41.5377 21.4206 39.4916 21.4206C35.299 21.4206 32.1294 18.3118 32.1294 14.2382C32.1294 10.1645 35.3598 7.1377 39.6105 7.1377C41.6355 7.1377 43.7635 8.03913 45.1461 9.46399V9.46663Z" fill="white"></path>
  <path d="M53.6927 18.5523L52.5903 21.2804H49.3203L55.4189 7.23804H58.6889L64.6871 21.2804H61.2981L60.1957 18.5523H53.6953H53.6927ZM56.9627 10.5477L54.7369 16.0039H59.1701L56.9627 10.5477Z" fill="white"></path>
  <path d="M76.1172 7.24072C79.6886 7.24072 81.7347 9.00659 81.7347 12.1154C81.7347 15.3854 79.6886 17.2702 76.1172 17.2702H73.3283V21.2831H70.1587V7.24072H76.1172ZM73.3283 14.6214H75.9559C77.7218 14.6214 78.7237 13.8178 78.7237 12.2132C78.7237 10.6086 77.7218 9.86573 75.9559 9.86573H73.3283V14.6188V14.6214Z" fill="white"></path>
  <path d="M98.2463 8.62305L97.0223 11.2507C95.5367 10.3678 93.7734 9.80734 92.6499 9.80734C91.5873 9.80734 90.8656 10.188 90.8656 10.952C90.8656 13.54 98.3467 12.0966 98.3282 17.151C98.3282 19.9003 95.9411 21.3833 92.8323 21.3833C90.5246 21.3833 88.2194 20.5004 86.6333 19.1575L87.8969 16.5695C89.3403 17.8542 91.3863 18.6763 92.872 18.6763C94.1753 18.6763 94.9577 18.1952 94.9577 17.3334C94.9577 14.6846 87.4766 16.2311 87.4766 11.256C87.4766 8.70764 89.6628 7.10303 92.9117 7.10303C94.8784 7.10303 96.8426 7.70575 98.2463 8.62834V8.62305Z" fill="white"></path>
  <path d="M110.623 9.92649V21.2804H107.454V9.92649H103.182V7.23804H114.916V9.92649H110.623Z" fill="white"></path>
  <path d="M121.937 18.5523L120.835 21.2804H117.565L123.664 7.23804H126.934L132.932 21.2804H129.543L128.44 18.5523H121.94H121.937ZM125.207 10.5477L122.982 16.0039H127.415L125.207 10.5477Z" fill="white"></path>
  <path d="M150.044 9.46663L148.198 11.7136C147.236 10.6113 145.851 9.88695 144.548 9.88695C142.139 9.88695 140.276 11.7533 140.276 14.1985C140.276 16.6438 142.142 18.5312 144.548 18.5312C145.811 18.5312 147.196 17.8889 148.198 16.887L150.065 18.9119C148.579 20.4372 146.435 21.4206 144.389 21.4206C140.196 21.4206 137.027 18.3118 137.027 14.2382C137.027 10.1645 140.257 7.1377 144.508 7.1377C146.533 7.1377 148.661 8.03913 150.044 9.46399V9.46663Z" fill="white"></path>
  <path d="M161.157 15.5652L159.132 17.8121V21.2831H155.962V7.24072H159.132V13.6195L164.969 7.24072H168.641L163.364 13.0988L169 21.2831H165.188L161.157 15.5652Z" fill="white"></path>
  <path d="M13.876 0H9.91602V7.0952H13.876V0Z" fill="#00D0BA"></path>
  <path d="M13.876 16.6277H9.91602V23.7229H13.876V16.6277Z" fill="#00D0BA"></path>
  <path d="M7.0952 9.86572H0V13.8257H7.0952V9.86572Z" fill="#00D0BA"></path>
  <path d="M4.8934 2.05558L2.09326 4.85571L7.11032 9.87278L9.91046 7.07264L4.8934 2.05558Z" fill="#00D0BA"></path>
  <path d="M7.12058 13.8294L2.10352 18.8464L4.90365 21.6466L9.92071 16.6295L7.12058 13.8294Z" fill="#00D0BA"></path>
  <path d="M17.8301 24.6958H13.8701V31.791H17.8301V24.6958Z" fill="#00D0BA"></path>
  <path d="M17.8301 8.06812H13.8701V15.1633H17.8301V8.06812Z" fill="#00D0BA"></path>
  <path d="M27.7461 17.9656H20.6509V21.9256H27.7461V17.9656Z" fill="#00D0BA"></path>
  <path d="M20.6375 21.9179L17.8374 24.718L22.8545 29.7351L25.6546 26.9349L20.6375 21.9179Z" fill="#00D0BA"></path>
  <path d="M22.8413 10.1465L17.8242 15.1636L20.6244 17.9637L25.6414 12.9466L22.8413 10.1465Z" fill="#00D0BA"></path>
</svg>
