<svg xmlns="http://www.w3.org/2000/svg" id="ac997986-7522-4bb8-80b3-d70ff93d03ce" data-name="Layer 1" viewBox="0 0 234.22 71.02"><defs><style>.a6fa42c2-b844-4061-a7fb-5cec8a80ec81{fill:#fff;}</style></defs><g id="b42e41f4-e1af-4e9f-98d4-d617b0fc146c" data-name="Group 1428"><g id="a9615130-ef8d-4955-bb78-13a0e252119e" data-name="Group 1427"><g id="f24b5be1-86ae-4d0a-89cb-61598ccd1bbb" data-name="Group 1426"><path id="f513e2e0-5877-4801-ac3c-f25783d54a71" data-name="Path 4873" class="a6fa42c2-b844-4061-a7fb-5cec8a80ec81" d="M233.18,35.5a5.2,5.2,0,0,0-5.2-5.2c-.13,0-.25,0-.38,0L215.67,9.69a5.18,5.18,0,1,0-8.83-5H184.18a5.18,5.18,0,1,0-8.91,4.92L163.34,30.33l-.3,0a5.2,5.2,0,1,0,0,10.4,3.91,3.91,0,0,0,.48-.05l11.41,20A5.12,5.12,0,0,0,173.64,64a5.18,5.18,0,0,0,10.1,1.66h23.55a5.19,5.19,0,1,0,8.57-5.34l11.4-19.72a6,6,0,0,0,.73.07,5.2,5.2,0,0,0,5.2-5.2M209.93,64a2.27,2.27,0,1,1,2.27,2.26A2.27,2.27,0,0,1,209.93,64m-.32-4.49L198.23,39.78a5.2,5.2,0,0,0,2.13-3.13h22.57a5.26,5.26,0,0,0,1.65,2.74L213.28,59a4.9,4.9,0,0,0-1.08-.12,5.12,5.12,0,0,0-2.59.71m-26.9,1,11.38-20a5.5,5.5,0,0,0,1.21.16,5.13,5.13,0,0,0,2.4-.62l11.4,19.8a5.25,5.25,0,0,0-1.92,2.87H183.87a5.17,5.17,0,0,0-1.16-2.16m12.6-22.82a2.27,2.27,0,1,1,2.26-2.26,2.27,2.27,0,0,1-2.26,2.26M176.59,64a2.26,2.26,0,1,1,4.51,0,2.27,2.27,0,1,1-4.53,0M166.26,39.54a5.16,5.16,0,0,0,2-4h21.86a5.21,5.21,0,0,0,1.44,3.57L180.2,59a5.21,5.21,0,0,0-1.36-.21,5.41,5.41,0,0,0-1.44.23Zm-1-4A2.27,2.27,0,1,1,163,33.24a2.27,2.27,0,0,1,2.27,2.26m12.4-24.26a4.89,4.89,0,0,0,1.57.27,4.6,4.6,0,0,0,.91-.09l11.59,20.29a5.12,5.12,0,0,0-1.61,3.18h-22a5.14,5.14,0,0,0-2-3.53Zm3.83-4.92a2.27,2.27,0,1,1-2.26-2.27,2.26,2.26,0,0,1,2.26,2.27m27.41,4.36L197.35,30.73a5.21,5.21,0,0,0-2.06-.43,4.58,4.58,0,0,0-.9.09L182.81,10.1a5.15,5.15,0,0,0,1.47-2.5h22.45A5.23,5.23,0,0,0,209,10.68M214,6.32a2.26,2.26,0,1,1-2.26-2.27A2.26,2.26,0,0,1,214,6.32M224.83,31.4a5.16,5.16,0,0,0-1.7,2.31h-23A5.18,5.18,0,0,0,197.9,31L209.49,11a4.9,4.9,0,0,0,3.72.31Zm5.42,4.1A2.26,2.26,0,1,1,228,33.23a2.26,2.26,0,0,1,2.26,2.27m-87.88,1.38c0-.51,0-.86,0-1.15,0-6.5-3.75-11.71-10.3-11.71-6.1,0-10.59,5.13-10.59,11.53,0,6.88,5,11.54,11,11.54a11.41,11.41,0,0,0,9.1-4.15l-2-1.83a9.17,9.17,0,0,1-7,3.12,7.72,7.72,0,0,1-7.78-7.35Zm-3.29-2.65H124.85c.47-4.27,3.38-7.43,7.18-7.43,4.36,0,6.67,3.41,7.05,7.43M121.6,64.66a12.27,12.27,0,0,0-.43-1.66L120,59.39h-1L117.85,63l-.24.83c-.1.35-.16.63-.2.84h0A13.81,13.81,0,0,0,117,63l-.93-3.61h-1l1.72,6.29h1.1L119.08,62c.11-.37.25-.88.4-1.55h0c.2.8.34,1.31.41,1.53l1.16,3.69h1.13L124,59.39h-1c-.73,2.8-1.13,4.35-1.2,4.63s-.09.43-.12.64ZM110.93,40.3V27.4h4l.24-.3,1.5-2.61h-5.8V15l0,.06-3.25,5.61v3.84H104.8l-1.67,2.91h4.51V40.72c0,4.49,2.69,6.24,6.24,6.24A10.65,10.65,0,0,0,115,46.9l1.9-3.3a6.9,6.9,0,0,1-2.25.38c-2.23,0-3.72-1-3.72-3.68m-9,25.39H103v-8.4h-.91v4.82q0,.36,0,1.2c0,.55,0,.89,0,1h0l-4.58-7h-1.1v8.4h.9V60.92q0-1-.09-2.28h0ZM96.71,46.58H100V33.08a8.71,8.71,0,0,0-2.3-6.49c-1.59-1.58-4-2.44-7.14-2.44a18.21,18.21,0,0,0-8,1.88l1,2.69a15.31,15.31,0,0,1,6.71-1.58c4.14,0,6.54,2.05,6.54,6v.69A22.7,22.7,0,0,0,90,32.87c-5.6,0-9.44,2.47-9.44,7.22v.08c0,4.53,4.1,6.88,8.24,6.88a9.7,9.7,0,0,0,7.95-3.76Zm0-8.12c0,3.5-3.29,5.94-7.35,5.94-3,0-5.55-1.62-5.55-4.4v-.08c0-2.65,2.35-4.45,6.45-4.45a23.14,23.14,0,0,1,6.45.94ZM81.22,59.28a2.35,2.35,0,0,0-1.92.87,3.76,3.76,0,0,0-.69,2.41A3.72,3.72,0,0,0,79.3,65a2.36,2.36,0,0,0,1.92.85,2.25,2.25,0,0,0,2-1h.06l.12.84h.78V56.75h-1v2.56l0,.45,0,.45h-.08a2.28,2.28,0,0,0-2-.93m.11.8a1.67,1.67,0,0,1,1.42.57,3.11,3.11,0,0,1,.44,1.91v.2a2.65,2.65,0,0,1-.43,1.71,1.72,1.72,0,0,1-1.42.53,1.5,1.5,0,0,1-1.3-.61,3.14,3.14,0,0,1-.44-1.82A3.3,3.3,0,0,1,80,60.73a1.45,1.45,0,0,1,1.29-.65M73,62.71h4.34v-.6a3,3,0,0,0-.69-2,2.41,2.41,0,0,0-1.87-.78,2.52,2.52,0,0,0-2,.9A3.63,3.63,0,0,0,72,62.6a3.24,3.24,0,0,0,.8,2.36,2.91,2.91,0,0,0,2.2.85,5.66,5.66,0,0,0,1.09-.09,5.05,5.05,0,0,0,1-.32v-.85a5.1,5.1,0,0,1-2,.43,2,2,0,0,1-1.5-.58A2.49,2.49,0,0,1,73,62.72M73,62a2.31,2.31,0,0,1,.53-1.37,1.59,1.59,0,0,1,1.21-.49,1.4,1.4,0,0,1,1.15.48,2.12,2.12,0,0,1,.4,1.38Zm.48-34.54,2.31-2.91H69.57V14.93h0l-.4.52-2.85,4.93V24.5h-3l-1.68,2.91h4.67V40.74C66.29,45.22,69,47,72.53,47c.34,0,.65,0,1,0l1.88-3.26A6.93,6.93,0,0,1,73.3,44c-2.22,0-3.72-1-3.72-3.67V27.41ZM61.74,57.71a3.5,3.5,0,0,0-1.4,1.5,5,5,0,0,0-.48,2.27,4.64,4.64,0,0,0,1,3.2,3.66,3.66,0,0,0,2.86,1.13,6.55,6.55,0,0,0,2.16-.33v-.86a7.53,7.53,0,0,1-2,.32,2.74,2.74,0,0,1-2.2-.9,3.77,3.77,0,0,1-.77-2.55,3.65,3.65,0,0,1,.8-2.52,2.74,2.74,0,0,1,2.18-.92,4.39,4.39,0,0,1,1.91.45l.41-.84a5.1,5.1,0,0,0-2.31-.48,4.25,4.25,0,0,0-2.15.52M59.23,38.55v-.09c0-4.57-3.07-7-9.74-8.46s-8.11-3-8.11-5.81v-.08c0-2.7,2.47-4.83,6.36-4.83a13.05,13.05,0,0,1,8.52,3.16l1.64-2.85a15.51,15.51,0,0,0-10.07-3.34c-5.68,0-9.83,3.46-9.83,8.16v.08c0,4.91,3.16,7.13,10,8.63,6.28,1.32,7.78,2.91,7.78,5.68v.09c0,3-2.65,5.08-6.67,5.08A14.18,14.18,0,0,1,39,39.85l-1.64,2.84A17.39,17.39,0,0,0,49,47c5.93,0,10.21-3.34,10.21-8.46M37.91,59.39h-.79v6.3h1V62.31a2.29,2.29,0,0,1,.54-1.55,1.7,1.7,0,0,1,1.31-.62,2.72,2.72,0,0,1,.69.09l.13-.89a3.81,3.81,0,0,0-.75-.07,1.93,1.93,0,0,0-1.09.34,2.71,2.71,0,0,0-.84.94H38Zm-3.15,5.55a4.56,4.56,0,0,0,0-4.81,2.32,2.32,0,0,0-1.93-.85,2.56,2.56,0,0,0-1.12.23,2.25,2.25,0,0,0-.85.74h-.05l-.13-.86h-.78v9.12h1V65.92a8.93,8.93,0,0,0-.07-1h.07a2.15,2.15,0,0,0,.85.7,2.7,2.7,0,0,0,1.12.22,2.3,2.3,0,0,0,1.92-.86m-.3-2.42A3.06,3.06,0,0,1,34,64.34a1.46,1.46,0,0,1-1.28.66,1.68,1.68,0,0,1-1.42-.57,3.23,3.23,0,0,1-.44-1.9v-.21a2.82,2.82,0,0,1,.44-1.7,1.68,1.68,0,0,1,1.4-.53,1.47,1.47,0,0,1,1.3.63,3,3,0,0,1,.47,1.8M28.13,46.58h3.29V32.86C31.42,27.61,28.3,24,23,24a8.38,8.38,0,0,0-7.56,4.32V24.49H12.11V46.58H15.4V33.93C15.4,29.79,18.22,27,22,27s6.1,2.56,6.1,6.67Zm-15.72,15a2.35,2.35,0,0,0-.57-1.76,2.36,2.36,0,0,0-1.71-.54A2.66,2.66,0,0,0,9,59.53a2,2,0,0,0-.82.72H8.08l-.15-.86H7.15v6.3H8.1v-3.3a2.77,2.77,0,0,1,.46-1.77A1.82,1.82,0,0,1,10,60.09a1.41,1.41,0,0,1,1.1.38,1.63,1.63,0,0,1,.35,1.15v4.07h.95ZM.76,65.68H5.44V64.8H1.74V61.73H5.22v-.87H1.73v-2.7h3.7v-.87H.75Zm0-19.11H4.13V16.72L.75,22.56Zm13.69,12.7-.9.4v.47h.9v3.74c0,1.28.6,1.92,1.82,1.92a3.19,3.19,0,0,0,.54,0,1.73,1.73,0,0,0,.46-.12V64.9l-.37.08a4,4,0,0,1-.49,0,.91.91,0,0,1-.74-.3,1.23,1.23,0,0,1-.27-.87v-3.7h1.82v-.75H15.39V57.94h-.55Zm4.48.9a3.61,3.61,0,0,0-.75,2.41,3.31,3.31,0,0,0,.8,2.36,2.84,2.84,0,0,0,2.2.85,5,5,0,0,0,1.09-.09,5.38,5.38,0,0,0,1-.31v-.85a5.17,5.17,0,0,1-2,.42,1.94,1.94,0,0,1-1.5-.57,2.46,2.46,0,0,1-.56-1.68h4.33v-.6a3,3,0,0,0-.69-2.06,2.35,2.35,0,0,0-1.87-.77,2.47,2.47,0,0,0-2,.9m.26,1.76a2.31,2.31,0,0,1,.53-1.37,1.58,1.58,0,0,1,1.21-.49,1.4,1.4,0,0,1,1.15.48,2.13,2.13,0,0,1,.4,1.38Zm6.72-2.54h-.78v6.29h.95V62.31a2.29,2.29,0,0,1,.54-1.55,1.7,1.7,0,0,1,1.31-.62,2.72,2.72,0,0,1,.69.09l.13-.89a3.81,3.81,0,0,0-.75-.07,1.93,1.93,0,0,0-1.09.34,2.71,2.71,0,0,0-.84.94H26ZM42,57.21a.8.8,0,0,0,0,1,.59.59,0,0,0,.4.16.58.58,0,0,0,.4-.16.65.65,0,0,0,.17-.48.66.66,0,0,0-.17-.48.57.57,0,0,0-.4-.15.56.56,0,0,0-.4.15m.88,2.19h-1v6.29h1Zm4.84,4a.79.79,0,0,1,.32.63.81.81,0,0,1-.4.73,2.29,2.29,0,0,1-1.15.23,3.76,3.76,0,0,1-1-.13,4.19,4.19,0,0,1-1-.36v.89a4.07,4.07,0,0,0,2,.4,3.09,3.09,0,0,0,1.83-.48A1.55,1.55,0,0,0,49,64a1.48,1.48,0,0,0-.39-1A4.31,4.31,0,0,0,47,62.11a9.49,9.49,0,0,1-1.1-.46,1.23,1.23,0,0,1-.41-.34.71.71,0,0,1,.21-1,2,2,0,0,1,1-.21,4.59,4.59,0,0,1,1.72.39l.34-.77a5.22,5.22,0,0,0-2-.42,3,3,0,0,0-1.71.45,1.41,1.41,0,0,0-.63,1.21,1.45,1.45,0,0,0,.18.74,1.73,1.73,0,0,0,.55.56,7.4,7.4,0,0,0,1.25.57,5,5,0,0,1,1.25.62m3.18-3.25a3.69,3.69,0,0,0-.75,2.42A3.29,3.29,0,0,0,51,65a2.91,2.91,0,0,0,2.2.85,5.74,5.74,0,0,0,1.09-.1,5,5,0,0,0,1-.31v-.85a5.1,5.1,0,0,1-2,.42,1.92,1.92,0,0,1-1.5-.57,2.55,2.55,0,0,1-.56-1.68h4.34v-.6a3,3,0,0,0-.69-2,2.34,2.34,0,0,0-1.87-.78,2.46,2.46,0,0,0-2,.9M51.16,62a2.31,2.31,0,0,1,.53-1.37,1.56,1.56,0,0,1,1.21-.49,1.38,1.38,0,0,1,1.14.48,2,2,0,0,1,.4,1.38Zm17.19-2.54h-.79v6.28h1V62.31a2.25,2.25,0,0,1,.54-1.55,1.69,1.69,0,0,1,1.3-.62,2.61,2.61,0,0,1,.69.09l.13-.89a3.68,3.68,0,0,0-.75-.06,1.91,1.91,0,0,0-1.08.33,2.87,2.87,0,0,0-.85,1h0Zm17.89-2.2a.67.67,0,0,0-.16.47.68.68,0,0,0,.16.48.51.51,0,0,0,.4.16.5.5,0,0,0,.4-.16.65.65,0,0,0,.17-.48.64.64,0,0,0-.17-.47.58.58,0,0,0-.4-.16.57.57,0,0,0-.4.16m.88,2.18h-1v6.3h1Zm2.08-.12-.9.4v.47h.9v3.74q0,1.92,1.83,1.92a3.29,3.29,0,0,0,.54,0,1.83,1.83,0,0,0,.46-.12V64.9l-.37.08-.49,0a.91.91,0,0,1-.74-.3,1.23,1.23,0,0,1-.27-.87v-3.7H92v-.75H90.16V57.94h-.55Zm16.4.9a3.63,3.63,0,0,0-.74,2.42,3.24,3.24,0,0,0,.8,2.36,2.91,2.91,0,0,0,2.2.85,5.66,5.66,0,0,0,1.09-.09,5.41,5.41,0,0,0,1-.32v-.85a5.18,5.18,0,0,1-2,.43,2,2,0,0,1-1.5-.58,2.44,2.44,0,0,1-.56-1.68h4.33v-.6a3,3,0,0,0-.69-2,2.36,2.36,0,0,0-1.87-.78,2.5,2.5,0,0,0-2,.9m.26,1.77a2.26,2.26,0,0,1,.53-1.37,1.53,1.53,0,0,1,1.21-.49,1.4,1.4,0,0,1,1.15.48,2.1,2.1,0,0,1,.4,1.38Zm6-2.66-.9.4v.45h.9v3.74q0,1.92,1.83,1.92a3.29,3.29,0,0,0,.54,0,1.66,1.66,0,0,0,.45-.12V64.9l-.37.08a3.91,3.91,0,0,1-.49,0,.91.91,0,0,1-.74-.3,1.28,1.28,0,0,1-.27-.87v-3.7h1.83v-.75h-1.83V57.94h-.55Zm13.65.86a3.42,3.42,0,0,0-.77,2.4,3.83,3.83,0,0,0,.35,1.73,2.66,2.66,0,0,0,1,1.14,2.86,2.86,0,0,0,1.5.4,2.74,2.74,0,0,0,2.14-.87,3.48,3.48,0,0,0,.78-2.4,3.4,3.4,0,0,0-.78-2.37,2.62,2.62,0,0,0-2.1-.88,2.69,2.69,0,0,0-2.13.86m.21,2.4a3,3,0,0,1,.48-1.83,1.67,1.67,0,0,1,1.41-.62,1.7,1.7,0,0,1,1.43.63,2.91,2.91,0,0,1,.49,1.82A3,3,0,0,1,129,64.4a1.9,1.9,0,0,1-2.83,0,3,3,0,0,1-.49-1.84M133,59.42h-.78v6.27h.95V62.31a2.29,2.29,0,0,1,.54-1.55,1.7,1.7,0,0,1,1.31-.62,2.72,2.72,0,0,1,.69.09l.13-.89a3.81,3.81,0,0,0-.75-.07,1.93,1.93,0,0,0-1.09.34,2.71,2.71,0,0,0-.84.94h0Zm5-2.64H137v8.91h.94V63.33l.71-.62,2.23,3H142l-2.73-3.61,2.55-2.69h-1.13l-2,2.16a9.41,9.41,0,0,0-.75.92h-.05c0-.44.05-.77.05-1Z"></path></g></g></g></svg>