<svg xmlns="http://www.w3.org/2000/svg" id="b49b7802-dc70-4d67-ad41-330608dfdbbe" data-name="Layer 1" viewBox="0 0 58.93 75.33"><defs><style>.a64c5c8d-f55f-4cf8-8564-87be75c118d3{fill:#0b496e;}</style></defs><path class="a64c5c8d-f55f-4cf8-8564-87be75c118d3" d="M57.43,0H1.5A1.5,1.5,0,0,0,0,1.5V73.83a1.5,1.5,0,0,0,1.5,1.5H57.43a1.51,1.51,0,0,0,1.5-1.5V1.5A1.5,1.5,0,0,0,57.43,0Zm-1.5,72.33H3V3H55.93Z"></path><path class="a64c5c8d-f55f-4cf8-8564-87be75c118d3" d="M22.76,33.08A7.87,7.87,0,0,0,33.6,43.92l5.91,5.91a1.5,1.5,0,0,0,1.06.44,1.42,1.42,0,0,0,1.06-.44h0a1.49,1.49,0,0,0,0-2.11L35.8,41.88a7.87,7.87,0,0,0-11-11l-5.39-5.39a1.5,1.5,0,0,0-2.12,2.12Zm6.7-.73v0a4.88,4.88,0,0,1,4.88,4.83h0a4.88,4.88,0,1,1-4.88-4.88Z"></path></svg>