<svg xmlns="http://www.w3.org/2000/svg" viewBox="0 0 46.94 40.01"><defs><style>.aad5e25f-1e40-4e4c-b1a7-8b6fc9e774de{fill:#09486d;}</style></defs><g id="e51f8bcb-4b78-405a-9b6f-831aa0738f1e" data-name="Layer 1"><path class="aad5e25f-1e40-4e4c-b1a7-8b6fc9e774de" d="M41.42,5.82H7.37c-1.26.12-3.58,0-4.42-.74a.79.79,0,0,1-.27-.61c0-1.86,3.71-2.07,3.7-2.07H41.33a1,1,0,0,0,0-2h-35C4.24.48.68,1.43.68,4.47a3.42,3.42,0,0,0,0,.46,1,1,0,0,0,0,.25L.33,31.56c0,7.76,6.7,7.86,6.76,7.86h0c.31,0,30.14.36,34.27.36h.23a5.19,5.19,0,0,0,5.16-5V10.61C46.75,7,43.29,5.89,41.42,5.82Zm0,32c-4.1,0-34-.36-34.31-.36-.49,0-4.78-.22-4.78-5.85L2.66,7.22a11.09,11.09,0,0,0,4.8.6H41.37c.35,0,3.38.23,3.38,2.79V34.76A3.15,3.15,0,0,1,41.42,37.78Z"></path><path class="aad5e25f-1e40-4e4c-b1a7-8b6fc9e774de" d="M38.17,19.59A3.84,3.84,0,1,0,42,23.43,3.84,3.84,0,0,0,38.17,19.59Zm0,5.68A1.84,1.84,0,1,1,40,23.43,1.84,1.84,0,0,1,38.17,25.27Z"></path><path class="aad5e25f-1e40-4e4c-b1a7-8b6fc9e774de" d="M4.9,4.11a1,1,0,0,0,1,1H43.22a1,1,0,0,0,0-2H5.9A1,1,0,0,0,4.9,4.11Z"></path></g></svg>